<svg width="453" height="122" viewBox="0 0 453 122" fill="none" xmlns="http://www.w3.org/2000/svg">
<path fill-rule="evenodd" clip-rule="evenodd" d="M54.5 109C54.391 78.9375 30.0325 54.601 0 54.601C30.0995 54.601 54.5 30.155 54.5 0C54.6085 30.0625 78.9675 54.399 109 54.399C78.9 54.399 54.5 78.845 54.5 109Z" fill="#1F009C"/>
<path d="M72.6802 84.8438V56.4844H67.7114V54.5156L88.4771 39.6094H90.3052V52.875L100.899 52.0781V56.4844L90.3052 55.6875V85.2656C90.3052 88.2031 90.8833 90.3125 92.0396 91.5938C93.1958 92.8438 94.7114 93.4688 96.5864 93.4688C97.5552 93.4688 98.4614 93.3125 99.3052 93C100.149 92.6875 100.852 92.2656 101.415 91.7344V93.9844C100.415 95.5469 98.6646 96.9375 96.1646 98.1562C93.6646 99.3438 90.7896 99.9375 87.5396 99.9375C84.6958 99.9062 82.1489 99.375 79.8989 98.3438C77.6802 97.3125 75.9146 95.6875 74.6021 93.4688C73.3208 91.25 72.6802 88.375 72.6802 84.8438ZM116.415 99.9375C112.29 99.9375 108.961 98.9219 106.43 96.8906C103.93 94.8281 102.68 92.0938 102.68 88.6875C102.68 86.3125 103.336 84.1875 104.649 82.3125C105.993 80.4062 108.149 78.75 111.118 77.3438C114.118 75.9375 118.102 74.75 123.071 73.7812L135.118 71.3906V73.875L129.446 75.1406C127.133 75.7031 125.274 76.4844 123.868 77.4844C122.493 78.4844 121.493 79.7031 120.868 81.1406C120.243 82.5469 119.93 84.1562 119.93 85.9688C119.93 88.5 120.508 90.4219 121.665 91.7344C122.821 93.0156 124.258 93.6562 125.977 93.6562C127.415 93.6562 128.649 93.3281 129.68 92.6719C130.743 92.0156 131.524 91.0781 132.024 89.8594V66.8438C132.024 62.5312 131.04 59.4688 129.071 57.6562C127.133 55.8438 124.305 54.9375 120.586 54.9375C118.368 54.9375 116.274 55.3125 114.305 56.0625C112.368 56.8125 110.774 57.8438 109.524 59.1562C108.274 60.4375 107.571 61.9062 107.415 63.5625H105.727C105.758 61.5 106.461 59.7188 107.836 58.2188C109.211 56.7188 110.821 55.9688 112.665 55.9688C114.696 55.9688 116.415 56.6719 117.821 58.0781C119.258 59.4844 119.977 61.2031 119.977 63.2344C119.977 65.3281 119.227 67.0938 117.727 68.5312C116.258 69.9375 114.461 70.6406 112.336 70.6406C110.211 70.6406 108.399 69.9531 106.899 68.5781C105.43 67.2031 104.696 65.4844 104.696 63.4219C104.696 61.1719 105.555 59.125 107.274 57.2812C109.024 55.4375 111.54 53.9688 114.821 52.875C118.133 51.75 122.118 51.1875 126.774 51.1875C133.899 51.1875 139.43 52.5156 143.368 55.1719C147.336 57.7969 149.321 61.9219 149.321 67.5469V89.8125C149.321 91.6875 149.727 93.0625 150.54 93.9375C151.383 94.8125 152.415 95.25 153.633 95.25C154.321 95.25 154.899 95.1719 155.368 95.0156V97.1719C154.336 97.8906 152.868 98.5 150.961 99C149.086 99.4688 147.04 99.7031 144.821 99.7031C142.852 99.7031 140.961 99.4062 139.149 98.8125C137.368 98.2188 135.852 97.3281 134.602 96.1406C133.383 94.9219 132.618 93.4062 132.305 91.5938C131.805 93.2812 130.805 94.75 129.305 96C127.805 97.25 125.946 98.2188 123.727 98.9062C121.54 99.5938 119.102 99.9375 116.415 99.9375ZM157.243 66.4688C157.243 63.4062 158.258 60.7344 160.29 58.4531C162.321 56.1406 165.118 54.3594 168.68 53.1094C172.243 51.8281 176.321 51.1875 180.915 51.1875C183.258 51.1875 185.493 51.375 187.618 51.75C189.743 52.125 191.633 52.6094 193.29 53.2031L209.18 52.0781V56.4844L196.008 55.3594C198.727 56.2656 200.883 57.6875 202.477 59.625C204.102 61.5625 204.915 63.7812 204.915 66.2812C204.915 69.3438 203.868 71.9844 201.774 74.2031C199.711 76.3906 196.883 78.0781 193.29 79.2656C189.727 80.4219 185.696 81 181.196 81C180.258 81 179.336 80.9688 178.43 80.9062C177.555 80.8438 176.649 80.7656 175.711 80.6719C174.211 80.9531 173.024 81.4531 172.149 82.1719C171.274 82.8906 170.836 83.8125 170.836 84.9375C170.836 86.2188 171.493 87.2188 172.805 87.9375C174.118 88.625 176.118 88.9688 178.805 88.9688H186.399C193.493 88.9688 198.79 90.3125 202.29 93C205.79 95.6875 207.524 99.375 207.493 104.062C207.493 106.688 206.821 109.078 205.477 111.234C204.133 113.422 202.258 115.297 199.852 116.859C197.446 118.422 194.618 119.625 191.368 120.469C188.118 121.344 184.586 121.781 180.774 121.781C175.493 121.781 170.961 121.344 167.18 120.469C163.43 119.625 160.555 118.422 158.555 116.859C156.555 115.297 155.555 113.5 155.555 111.469C155.555 109.875 156.18 108.469 157.43 107.25C158.68 106.031 160.711 105.047 163.524 104.297C166.368 103.578 170.102 103.141 174.727 102.984C169.415 103.016 165.133 102.047 161.883 100.078C158.665 98.1406 157.071 95.4844 157.102 92.1094C157.102 88.8906 158.524 86.2031 161.368 84.0469C164.211 81.8906 168.321 80.5781 173.696 80.1094C170.54 79.7031 167.711 78.9219 165.211 77.7656C162.743 76.5781 160.79 75.0469 159.352 73.1719C157.946 71.2656 157.243 69.0312 157.243 66.4688ZM174.493 65.8594C174.493 69.6406 175.086 72.6562 176.274 74.9062C177.493 77.125 179.149 78.2344 181.243 78.2344C183.399 78.2344 185.008 77.1719 186.071 75.0469C187.165 72.9219 187.711 70.0156 187.711 66.3281C187.711 62.5469 187.133 59.5469 185.977 57.3281C184.821 55.0781 183.165 53.9531 181.008 53.9531C178.79 53.9531 177.149 55.0156 176.086 57.1406C175.024 59.2656 174.493 62.1719 174.493 65.8594ZM170.086 110.672C170.086 113.078 171.055 115.031 172.993 116.531C174.961 118.062 177.633 118.828 181.008 118.828C184.665 118.828 187.618 118.047 189.868 116.484C192.149 114.953 193.29 112.922 193.29 110.391C193.29 108.234 192.508 106.531 190.946 105.281C189.415 104.062 187.024 103.453 183.774 103.453H177.352C175.071 103.641 173.29 104.359 172.008 105.609C170.727 106.859 170.086 108.547 170.086 110.672ZM233.227 28.5V91.4062C233.227 93.125 233.555 94.3438 234.211 95.0625C234.868 95.7812 236.274 96.3438 238.43 96.75V99H210.352V96.75C212.508 96.3438 213.915 95.7812 214.571 95.0625C215.227 94.3438 215.555 93.125 215.555 91.4062V39.1406C215.555 37.4531 215.368 36.3281 214.993 35.7656C214.649 35.1719 213.821 34.625 212.508 34.125L210.352 33.4219V31.3125L233.227 28.5ZM263.04 51.4219V91.4062C263.04 93.125 263.368 94.3438 264.024 95.0625C264.68 95.7812 266.086 96.3438 268.243 96.75V99H240.118V96.75C242.305 96.3438 243.711 95.7812 244.336 95.0625C244.993 94.3438 245.321 93.125 245.321 91.4062V62.0156C245.321 60.3594 245.149 59.25 244.805 58.6875C244.461 58.0938 243.633 57.5469 242.321 57.0469L240.118 56.3438V54.2344L263.04 51.4219ZM253.336 46.125C250.93 46.125 248.883 45.3594 247.196 43.8281C245.508 42.2969 244.665 40.3594 244.665 38.0156C244.665 35.6406 245.508 33.7031 247.196 32.2031C248.883 30.6719 250.93 29.9062 253.336 29.9062C255.743 29.9062 257.79 30.6719 259.477 32.2031C261.165 33.7031 262.008 35.6406 262.008 38.0156C262.008 40.3594 261.165 42.2969 259.477 43.8281C257.79 45.3594 255.743 46.125 253.336 46.125ZM292.43 51.4219V60.4219C293.586 57.6406 295.571 55.4062 298.383 53.7188C301.227 52.0312 304.711 51.1875 308.836 51.1875C313.68 51.1875 317.586 52.4219 320.555 54.8906C323.524 57.3594 325.008 61.1875 325.008 66.375V91.4062C325.008 93.125 325.321 94.3438 325.946 95.0625C326.571 95.75 327.993 96.3125 330.211 96.75V99H302.883V96.75C304.727 96.375 305.915 95.875 306.446 95.25C307.008 94.5938 307.29 93.4219 307.29 91.7344V66.6562C307.29 63.8125 306.633 61.6875 305.321 60.2812C304.008 58.8438 302.165 58.125 299.79 58.125C298.071 58.125 296.586 58.5 295.336 59.25C294.086 59.9688 293.149 60.9219 292.524 62.1094V91.7344C292.524 93.4219 292.79 94.5938 293.321 95.25C293.852 95.875 295.071 96.375 296.977 96.75V99H269.602V96.75C271.79 96.3438 273.196 95.7812 273.821 95.0625C274.477 94.3438 274.805 93.125 274.805 91.4062V62.0156C274.805 60.3594 274.633 59.25 274.29 58.6875C273.946 58.0938 273.118 57.5469 271.805 57.0469L269.602 56.3438V54.2344L292.43 51.4219ZM332.743 75.7031C332.743 70.8906 333.805 66.6406 335.93 62.9531C338.055 59.2656 341.008 56.3906 344.79 54.3281C348.602 52.2344 353.04 51.1875 358.102 51.1875C362.571 51.1875 366.399 52.0312 369.586 53.7188C372.805 55.375 375.258 57.7031 376.946 60.7031C378.665 63.6719 379.524 67.125 379.524 71.0625C379.524 72.4062 379.461 73.5312 379.336 74.4375H346.711V71.8594L365.086 71.625L364.149 72.4219C364.211 71.8281 364.258 71.1562 364.29 70.4062C364.321 69.6562 364.336 68.75 364.336 67.6875C364.336 64.8438 364.118 62.4219 363.68 60.4219C363.243 58.3906 362.555 56.8438 361.618 55.7812C360.711 54.6875 359.54 54.1406 358.102 54.1406C355.633 54.1406 353.727 55.4531 352.383 58.0781C351.04 60.6719 350.368 64.375 350.368 69.1875C350.368 74.4062 351.133 78.7812 352.665 82.3125C354.227 85.8125 356.352 88.4688 359.04 90.2812C361.758 92.0625 364.836 92.9531 368.274 92.9531C370.461 92.9531 372.461 92.5781 374.274 91.8281C376.118 91.0469 377.618 90.0781 378.774 88.9219V91.1719C377.024 93.9531 374.352 96.1094 370.758 97.6406C367.196 99.1719 363.133 99.9375 358.571 99.9375C353.821 99.9375 349.493 98.9688 345.586 97.0312C341.68 95.0938 338.555 92.3125 336.211 88.6875C333.899 85.0625 332.743 80.7344 332.743 75.7031Z" fill="#FCFF5B"/>
<path fill-rule="evenodd" clip-rule="evenodd" d="M405.421 90.9C405.421 95.7566 401.484 99.6936 396.627 99.6936C391.771 99.6936 387.833 95.7566 387.833 90.9C387.833 86.0434 391.771 82.1064 396.627 82.1064C401.484 82.1064 405.421 86.0434 405.421 90.9ZM394.282 89.4019C395.11 89.4019 395.78 88.7311 395.78 87.9037C395.78 87.0763 395.11 86.4055 394.282 86.4055C393.455 86.4055 392.784 87.0763 392.784 87.9037C392.784 88.7311 393.455 89.4019 394.282 89.4019ZM398.972 89.4019C399.799 89.4019 400.47 88.7311 400.47 87.9037C400.47 87.0763 399.799 86.4055 398.972 86.4055C398.145 86.4055 397.474 87.0763 397.474 87.9037C397.474 88.7311 398.145 89.4019 398.972 89.4019ZM396.692 93.9615C394.678 93.9615 393.045 92.3283 393.045 90.3138H391.481C391.481 93.1917 393.814 95.5248 396.692 95.5248C399.57 95.5248 401.903 93.1917 401.903 90.3138H400.34C400.34 92.3283 398.707 93.9615 396.692 93.9615Z" fill="#FCFF5B"/>
</svg>
